<?xml version="1.0" standalone="no"?>
<!DOCTYPE svg PUBLIC "-//W3C//DTD SVG 20010904//EN"
 "http://www.w3.org/TR/2001/REC-SVG-20010904/DTD/svg10.dtd">
<svg version="1.0" xmlns="http://www.w3.org/2000/svg"
 width="700.000000pt" height="700.000000pt" viewBox="0 0 700.000000 700.000000"
 preserveAspectRatio="xMidYMid meet">
<metadata>
Created by potrace 1.14, written by Peter Selinger 2001-2017
</metadata>
<g transform="translate(0.000000,700.000000) scale(0.100000,-0.100000)"
fill="#000000" stroke="none">
<path d="M2730 6557 c-65 -13 -124 -58 -153 -117 l-26 -51 0 -297 c-1 -292 0
-298 23 -348 66 -142 255 -172 356 -57 56 63 55 56 58 386 l3 308 -24 53 c-42
92 -140 143 -237 123z"/>
<path d="M1515 6541 c-51 -24 -80 -51 -107 -104 -21 -40 -22 -54 -22 -336 -1
-325 3 -356 56 -413 88 -93 227 -96 316 -7 61 60 66 91 65 414 0 307 -4 332
-56 392 -61 70 -169 93 -252 54z"/>
<path d="M3860 6549 c-63 -26 -123 -93 -135 -154 -3 -17 -6 -159 -6 -317 0
-263 2 -291 19 -330 75 -166 297 -178 388 -21 l28 47 2 290 c3 339 -2 371 -66
434 -22 21 -57 44 -79 50 -46 14 -117 14 -151 1z"/>
<path d="M1787 5394 c-1 -1 -40 -4 -87 -7 -112 -9 -137 -12 -239 -38 -417
-104 -769 -392 -959 -786 -17 -35 -28 -63 -25 -63 3 0 1 -6 -5 -12 -28 -35
-89 -275 -100 -393 -3 -38 -6 -599 -6 -1245 0 -872 3 -1192 12 -1240 7 -36 15
-81 18 -100 3 -19 22 -87 44 -151 124 -373 380 -667 736 -847 137 -69 343
-127 494 -140 103 -8 2359 -8 2441 1 57 6 93 12 196 33 82 16 291 100 368 147
307 188 506 417 628 723 31 76 69 203 81 270 8 44 19 150 17 165 -1 13 15 20
76 33 285 61 535 197 733 397 271 275 417 618 424 999 2 89 -15 277 -29 320
-4 11 -8 31 -11 44 -18 103 -111 319 -187 437 -244 380 -678 638 -1114 663
-42 2 -44 4 -92 84 -188 314 -489 546 -840 648 -192 56 -202 56 -1438 58 -624
0 -1135 0 -1136 0z m2323 -448 c92 -18 195 -49 262 -79 257 -117 460 -343 547
-607 51 -155 50 -129 48 -1405 -2 -654 -6 -1203 -10 -1220 -5 -16 -15 -56 -23
-87 -41 -162 -133 -318 -262 -448 -156 -155 -331 -247 -544 -284 -112 -19
-2366 -19 -2483 1 -362 60 -669 322 -788 673 -54 157 -52 117 -51 1405 l0
1200 26 96 c81 298 272 532 545 664 90 45 253 90 333 94 30 2 56 4 57 4 5 6
2314 -1 2343 -7z m1525 -882 c197 -96 356 -254 454 -450 40 -80 76 -181 86
-243 3 -19 8 -38 11 -43 12 -20 10 -252 -2 -325 -59 -339 -270 -616 -576 -757
-74 -35 -186 -71 -194 -64 -3 3 -6 1382 -4 1935 l0 31 68 -20 c37 -11 108 -40
157 -64z"/>
</g>
</svg>
